HIERARCHY
ROOT Hips
{
	OFFSET -3.958830 18.904000 13.208200
	CHANNELS 6 Xposition Yposition Zposition Zrotation Yrotation Xrotation 
	JOINT LHipJoint
	{
		OFFSET 0.000000 0.000000 0.000000
		CHANNELS 3 Zrotation Yrotation Xrotation
		JOINT LeftUpLeg
		{
			OFFSET 1.800000 -1.400000 0.085000
			CHANNELS 3 Zrotation Yrotation Xrotation
			JOINT LeftLeg
			{
				OFFSET 2.215000 -6.000000 0.000000
				CHANNELS 3 Zrotation Yrotation Xrotation
				JOINT LeftFoot
				{
					OFFSET 2.500000 -6.900000 0.000000
					CHANNELS 3 Zrotation Yrotation Xrotation
					JOINT LeftToeBase
					{
						OFFSET 0.200000 -0.500000 1.950000
						CHANNELS 3 Zrotation Yrotation Xrotation
						End Site
						{
							OFFSET 0.000000 0.000000 0.000000
						}
					}
				}
			}
		}
	}
	JOINT RHipJoint
	{
		OFFSET 0.000000 0.000000 0.000000
		CHANNELS 3 Zrotation Yrotation Xrotation
		JOINT RightUpLeg
		{
			OFFSET -1.800000 -1.400000 0.085000
			CHANNELS 3 Zrotation Yrotation Xrotation
			JOINT RightLeg
			{
				OFFSET -2.215000 -6.000000 0.000000
				CHANNELS 3 Zrotation Yrotation Xrotation
				JOINT RightFoot
				{
					OFFSET -2.500000 -6.900000 0.000000
					CHANNELS 3 Zrotation Yrotation Xrotation
					JOINT RightToeBase
					{
						OFFSET -0.200000 -0.500000 1.950000
						CHANNELS 3 Zrotation Yrotation Xrotation
						End Site
						{
							OFFSET 0.000000 0.000000 0.000000
						}
					}
				}
			}
		}
	}
	JOINT LowerBack
	{
		OFFSET 0.000000 0.000000 0.000000
		CHANNELS 3 Zrotation Yrotation Xrotation
		JOINT Spine
		{
			OFFSET -0.087000 1.940000 -0.288900
			CHANNELS 3 Zrotation Yrotation Xrotation
			JOINT Spine1
			{
				OFFSET 0.000000 1.950000 0.060000
				CHANNELS 3 Zrotation Yrotation Xrotation
				JOINT Neck
				{
					OFFSET 0.000000 0.000000 0.000000
					CHANNELS 3 Zrotation Yrotation Xrotation
					JOINT Neck1
					{
						OFFSET 0.000000 1.600000 0.340000
						CHANNELS 3 Zrotation Yrotation Xrotation
						JOINT Head
						{
							OFFSET 0.000000 1.667000 -0.240000
							CHANNELS 3 Zrotation Yrotation Xrotation
							End Site
							{
								OFFSET 0.000000 0.000000 0.000000
							}
						}
					}
				}
				JOINT LeftShoulder
				{
					OFFSET 0.000000 0.000000 0.000000
					CHANNELS 3 Zrotation Yrotation Xrotation
					JOINT LeftArm
					{
						OFFSET 2.700000 1.550000 -0.730000
						CHANNELS 3 Zrotation Yrotation Xrotation
						JOINT LeftForeArm
						{
							OFFSET 5.450000 0.000000 0.000000
							CHANNELS 3 Zrotation Yrotation Xrotation
							JOINT LeftHand
							{
								OFFSET 3.450000 0.000000 0.000000
								CHANNELS 3 Zrotation Yrotation Xrotation
								JOINT LeftHandIndex1
								{
									OFFSET 0.750000 0.000000 0.000000
									CHANNELS 3 Zrotation Yrotation Xrotation
									End Site
									{
										OFFSET 0.000000 0.000000 0.000000
									}
								}
							}
						}
					}
				}
				JOINT RightShoulder
				{
					OFFSET 0.000000 0.000000 0.000000
					CHANNELS 3 Zrotation Yrotation Xrotation
					JOINT RightArm
					{
						OFFSET -2.700000 1.550000 -0.730000
						CHANNELS 3 Zrotation Yrotation Xrotation
						JOINT RightForeArm
						{
							OFFSET -5.450000 0.000000 0.000000
							CHANNELS 3 Zrotation Yrotation Xrotation
							JOINT RightHand
							{
								OFFSET -3.450000 0.000000 0.000000
								CHANNELS 3 Zrotation Yrotation Xrotation
								JOINT RightHandIndex1
								{
									OFFSET -0.750000 0.000000 0.000000
									CHANNELS 3 Zrotation Yrotation Xrotation
									End Site
									{
										OFFSET 0.000000 0.000000 0.000000
									}
								}
							}
						}
					}
				}
			}
		}
	}
}
MOTION
Frames: 8
Frame Time: 0.016667
0.442420 16.899070 -2.110840 -2.199990 -16.924475 8.311015 -14.937128 13.302510 3.762681 8.091280 -2.679708 -15.640615 -12.376484 4.261386 1.982448 -0.786924 4.245378 3.301714 -0.479830 -0.909890 -0.448730 18.336311 -10.494624 2.977492 -2.063822 1.864299 -19.412303 2.327992 -3.433856 5.658830 0.089531 -1.937487 4.061783 -0.444290 0.593350 -0.010130 -3.731392 -2.562022 -8.175238 7.219162 -6.143553 30.995518 -7.824398 -3.695805 -2.068204 2.408025 -7.096768 -16.442050 -16.278402 8.937578 33.403987 -0.948810 5.856880 -17.422600 -11.822294 -11.567684 7.979210 -24.401549 8.414968 -1.717479 -0.948639 6.063114 -1.294138 -4.083597 2.096008 1.041770 0.082210 -0.155170 0.055240 7.980400 17.084802 12.137255 50.929007 -5.146487 -12.045484 96.279169 44.495388 32.752868 2.037449 -1.204583 -0.746000 0.638820 0.637940 -0.287720 
0.367130 16.909210 -2.117420 -2.796818 -16.074679 9.240372 -15.027663 13.305939 3.753091 8.777693 -2.553822 -15.905404 -11.578462 4.003962 0.932485 -0.788985 4.205757 3.312831 -0.478620 -0.908180 -0.442760 18.269169 -10.327486 3.032062 -1.671057 1.998899 -18.632669 3.228419 -3.363046 3.960314 0.079002 -1.988061 4.050314 -0.444420 0.597710 0.013230 -3.521635 -2.813885 -8.246132 5.936308 -4.970560 29.800046 -6.042952 -2.893321 -0.985116 2.271267 -6.302640 -16.017565 -14.282125 8.084009 33.184202 -1.615610 5.996780 -17.213300 -10.193075 -10.384008 7.668647 -24.967408 8.502987 -1.986443 -2.830749 6.032439 -1.523519 -4.115474 2.103877 1.025000 0.106560 -0.157570 0.053630 6.555359 15.628482 11.895728 50.493026 -5.523901 -11.774312 98.490076 45.233501 34.852937 2.014957 -1.244167 -0.734690 0.617720 0.635930 -0.289690 
0.297740 16.911120 -2.124980 -3.360490 -14.883651 10.087794 -15.102334 13.297129 3.727892 9.206298 -2.469929 -16.319431 -10.830205 3.825609 0.317575 -0.809570 4.155610 3.337613 -0.472700 -0.895640 -0.433220 18.219738 -10.203264 3.066467 -1.202915 2.113423 -18.116709 3.930968 -3.317268 2.947416 0.072300 -2.031459 4.045491 -0.428800 0.606140 0.012320 -3.364712 -2.981901 -8.269758 5.124533 -4.198868 28.733717 -4.600867 -2.365179 0.068236 2.119070 -5.596165 -15.437668 -12.409520 7.148921 32.214908 -2.227500 6.010730 -17.729540 -8.528222 -8.891014 7.187698 -25.494267 8.612622 -2.382924 -4.592477 5.158157 -1.724222 -4.127765 2.089312 1.013630 0.124770 -0.165110 0.059440 5.080869 13.800991 11.493700 49.876515 -5.818324 -11.305426 101.171305 45.428124 36.920994 1.982492 -1.284124 -0.743630 0.624970 0.626240 -0.294320 
0.227050 16.904420 -2.126200 -3.706596 -14.137077 11.200257 -15.175679 13.284199 3.693295 9.118483 -2.445258 -16.986111 -9.765540 3.608293 -0.238160 -0.848665 4.055400 3.380647 -0.495150 -0.916550 -0.446980 18.168577 -10.104319 3.111566 -0.838048 2.280805 -18.141215 4.611595 -3.252980 2.080087 0.097692 -2.065761 4.045205 -0.422620 0.641450 0.009840 -3.201331 -3.082217 -8.288329 4.131409 -3.075601 26.690060 -3.175184 -1.593437 1.181525 2.012311 -4.770051 -15.137691 -10.511523 6.395789 31.713155 -2.716810 6.031180 -16.087210 -7.140495 -7.770522 6.952049 -25.905678 9.551937 -2.976245 -6.215795 2.581204 -1.814535 -4.144528 2.077366 0.982250 0.169560 -0.199160 0.056990 3.840434 12.354748 11.293184 49.010693 -6.366283 -10.742579 103.594874 45.041285 38.315426 1.942898 -1.324806 -0.763110 0.630820 0.638750 -0.296800 
0.153760 16.908720 -2.129760 -3.908199 -14.076941 11.453553 -15.245011 13.362580 3.605170 8.842192 -2.291629 -17.159736 -8.304112 3.509890 -0.021836 -0.878042 3.915455 3.438176 -0.494480 -0.914470 -0.437960 18.103583 -10.075327 3.148444 -0.734872 2.253340 -17.563526 5.369875 -3.277818 1.548178 0.091809 -2.130972 4.035207 -0.417410 0.646260 0.000770 -3.002395 -3.193932 -8.275075 2.435250 -1.586958 25.653542 -1.233411 -0.585403 1.979152 1.834662 -4.086985 -15.056638 -9.168832 5.986760 32.147449 -2.965670 6.176500 -15.242780 -6.062327 -6.938796 6.823786 -26.164995 10.748158 -3.770173 -8.455962 -0.636017 -1.835119 -4.103183 2.077098 0.975400 0.182050 -0.205220 0.061930 3.167879 11.393140 11.319582 48.179488 -7.166410 -10.497290 106.617591 45.580027 40.999665 1.934925 -1.342992 -0.772460 0.635530 0.627500 -0.301880 
0.086350 16.915730 -2.128430 -4.272370 -14.141178 11.440050 -15.289463 13.474600 3.468834 8.369754 -2.069483 -17.466776 -6.414875 3.471420 0.986565 -0.908656 3.715888 3.499057 -0.486590 -0.907690 -0.425320 18.050584 -10.101350 3.206365 -0.793322 2.233422 -16.822710 6.774634 -3.417451 1.431028 0.076989 -2.246325 3.989193 -0.414700 0.631410 0.000310 -2.850053 -3.230891 -8.240137 1.222324 -0.154305 24.956549 0.578709 0.485471 2.415984 1.687018 -3.514080 -15.150214 -8.077203 5.699491 32.953026 -2.888450 6.212950 -13.851250 -5.146835 -6.413977 6.826119 -26.846942 12.253242 -4.828770 -10.467458 -4.465993 -1.668313 -4.041725 2.124370 0.962690 0.183070 -0.206900 0.059130 2.604533 10.880551 11.489862 47.019715 -7.741636 -10.169421 109.574885 46.351284 44.047464 1.949425 -1.369385 -0.763730 0.610680 0.614400 -0.305760 
0.017910 16.922320 -2.119960 -4.716753 -14.099282 11.129467 -15.334916 13.593468 3.307362 8.005305 -1.764720 -17.546093 -4.504449 3.465442 2.351176 -0.928092 3.547679 3.546558 -0.455270 -0.871800 -0.394490 17.999177 -10.150010 3.252383 -0.732223 2.122641 -15.657779 8.042229 -3.606998 1.512751 0.038887 -2.398134 3.926496 -0.400450 0.605420 0.013720 -2.698056 -3.238797 -8.176876 0.097686 1.300258 24.381746 2.538155 1.608071 3.171281 1.481354 -2.681301 -15.119600 -6.487829 5.058722 33.818038 -3.113330 6.099010 -13.225170 -3.832490 -5.959627 6.739185 -26.773019 13.159989 -5.820592 -15.046086 -8.110067 -1.422477 -3.964339 2.203028 0.949660 0.181290 -0.191600 0.063020 1.706018 10.240256 11.529026 45.852590 -7.695022 -9.757296 112.023931 47.400072 47.186711 1.964964 -1.396233 -0.739100 0.582430 0.586740 -0.306720 
-0.056550 16.916210 -2.101780 -4.943355 -13.757893 11.173575 -15.414841 13.681314 3.150446 7.440140 -1.579788 -18.157387 -2.588493 3.410823 3.814859 -0.985366 3.413415 3.588426 -0.446400 -0.859720 -0.383290 17.932926 -10.139652 3.278709 -0.678872 2.079888 -14.945523 9.313657 -3.763061 1.489309 0.027622 -2.543704 3.872896 -0.377520 0.618390 0.022810 -2.489517 -3.311383 -8.062069 -1.600575 2.820176 22.836199 4.999772 2.618299 4.250526 1.262142 -1.701009 -14.766753 -4.508002 4.359344 33.554857 -3.603010 6.097290 -12.574010 -3.284848 -5.437211 6.465820 -26.143333 13.964369 -6.555898 -20.747976 -11.088607 -1.006020 -3.932678 2.282658 0.927730 0.212550 -0.207360 0.061190 1.648487 9.322114 11.330311 43.831531 -7.823544 -9.134847 115.258006 48.303747 51.136410 1.958075 -1.407956 -0.744280 0.580400 0.586510 -0.313370 
